# xmcd
#
# Track frame offsets: 
#        150
#        12702
#        24815
#        40477
#        50844
#        66222
#        74249
#        85789
#        97050
#        107481
#        119986
#        132621
#        145988
#        159595
#        170256
#        182861
#        190599
#        198896
#        206377
#        219144
#
# Disc length: 3088 seconds
#
# Revision: 0
# Processed by: cddbd v1.5.2PL0 Copyright (c) Steve Scherf et al.
# Submitted via: ExactAudioCopy v0.99pb3
#
DISCID=2f0c0e14
DTITLE=Chet Atkins - Eclectic Guitar
DYEAR=2007
DGENRE=Country
TTITLE0=Sunrise Serenade
TTITLE1=Honeysuckle Rose
TTITLE2=Caravan
TTITLE3=Mister Sandman
TTITLE4=Tenderly
TTITLE5=Minute Waltz
TTITLE6=Intermezzo
TTITLE7=Minuet-from French Harpsicord Suite, Prelude from Six Short Pr
TTITLE7=eludes
TTITLE8=Little Rock Getaway
TTITLE9=Ochi Chomya (Dark Eyes)
TTITLE10=La Golodrina (The Swallow)
TTITLE11=Indian Love Call
TTITLE12=St Louis Blues
TTITLE13=Alice Blue Gown
TTITLE14=Malaguena
TTITLE15=Govette in D
TTITLE16=Waltz in A-Flat
TTITLE17=Adelita
TTITLE18=Petite Waltz
TTITLE19=Liza
EXTD=
EXTT0=
EXTT1=
EXTT2=
EXTT3=
EXTT4=
EXTT5=
EXTT6=
EXTT7=
EXTT8=
EXTT9=
EXTT10=
EXTT11=
EXTT12=
EXTT13=
EXTT14=
EXTT15=
EXTT16=
EXTT17=
EXTT18=
EXTT19=
PLAYORDER=
